<svg width="127" height="45" viewBox="0 0 127 45" fill="none" xmlns="http://www.w3.org/2000/svg">
<g id="Modo_de_aislamiento" clip-path="url(#clip0_522_74)">
<path id="Vector" d="M18.8585 0.516477C17.8672 2.55395 16.9552 4.23878 16.2414 6.00198C14.6949 9.64591 13.7036 13.4074 14.457 17.404C15.3294 22.1058 19.3344 25.4755 24.2117 25.8281C29.6046 26.2591 34.7596 24.9661 39.8749 23.5948C49.6296 21.0087 89.2435 10.7038 99.3551 8.03945C108.158 5.7277 126.438 1.02584 126.875 1.22176C125.526 1.80949 39.7956 37.622 31.2304 41.0308C25.9962 43.1075 20.5636 44.5964 14.8535 44.4788C9.46065 44.3613 4.86085 42.4805 2.16441 37.5436C0.419656 34.3698 0.459309 30.9218 1.17307 27.4738C2.56094 20.852 6.0901 15.2881 10.2934 10.1161C12.7915 7.02071 15.488 4.08205 18.1051 1.10421C18.2637 0.947481 18.462 0.829934 18.8982 0.477295L18.8585 0.516477Z" fill="white"/>
</g>
<defs>
<clipPath id="clip0_522_74">
<rect width="126.138" height="44.0015" fill="white" transform="translate(0.657593 0.516357)"/>
</clipPath>
</defs>
</svg>
