<svg width="239" height="25" viewBox="0 0 239 25" fill="none" xmlns="http://www.w3.org/2000/svg">
<g id="Capa_1" clip-path="url(#clip0_522_53)">
<path id="Vector" d="M14.0042 10.9864V19.1754H8.98627V11.4914C8.98627 10.5474 8.94283 9.99849 8.50837 9.60332C8.13908 9.29596 7.81324 9.20814 7.22672 9.20814C6.31436 9.20814 5.35856 9.84481 5.35856 11.9085V19.1754H0.362305V5.89304H5.24994V7.84697C5.90163 6.31017 7.33534 5.49786 9.33384 5.49786C10.8979 5.49786 11.9406 5.87109 12.7443 6.66144C13.7436 7.62743 14.0042 9.07641 14.0042 11.0084V10.9864Z" fill="white"/>
<path id="Vector_2" d="M16.3938 0.162964H21.3901V4.37819H16.3938V0.162964ZM21.3901 5.89303V19.1754H16.3938V5.89303H21.3901Z" fill="white"/>
<path id="Vector_3" d="M33.0552 19.1754L30.0575 13.9503L28.7758 15.1577V19.1754H23.8882V0.777679H28.7758V9.91067L32.5773 5.91498H38.4859L33.3593 10.8767L38.5728 19.1973H33.0552V19.1754Z" fill="white"/>
<path id="Vector_4" d="M52.7577 13.6429H43.1779C43.1996 15.4212 43.9382 16.453 45.5674 16.453C46.9142 16.453 47.5659 15.7725 47.7832 14.5869L52.6273 14.9821C51.8888 17.9898 49.3255 19.5486 45.5457 19.5486C43.2648 19.5486 41.4618 18.868 40.2453 17.7264C38.9202 16.497 38.2468 14.6967 38.2468 12.4574C38.2468 10.218 38.8985 8.5056 40.2453 7.27615C41.5053 6.09062 43.2648 5.45395 45.5023 5.45395C47.8918 5.45395 49.7382 6.17844 50.9764 7.4957C52.2798 8.87882 52.8228 10.9206 52.7794 13.599L52.7577 13.6429ZM43.6993 9.36181C43.4386 9.71308 43.2865 10.1741 43.1996 10.723H47.7832C47.6963 10.0863 47.5442 9.58136 47.2401 9.23009C46.8708 8.74709 46.3494 8.57146 45.5457 8.57146C44.6985 8.57146 44.112 8.81296 43.6993 9.36181Z" fill="white"/>
<path id="Vector_5" d="M69.1151 12.4793C69.1151 16.8482 66.9646 19.5706 63.3586 19.5706C61.6642 19.5706 60.2305 18.6704 59.5353 17.419V19.1754H54.6477V0.777679H59.5353V7.51765C60.3174 6.28821 61.7294 5.49785 63.4455 5.49785C66.8777 5.49785 69.1151 8.26409 69.1151 12.5013V12.4793ZM63.8365 12.5013C63.8365 9.95457 63.3368 8.83491 61.6642 8.83491C60.9908 8.83491 60.4911 9.05445 60.1219 9.49354C59.6874 10.1083 59.4485 11.0742 59.4485 12.5232C59.4485 14.9602 60.1001 16.2115 61.6425 16.2115C62.2724 16.2115 62.7286 16.0798 63.0762 15.6846C63.6192 15.1358 63.8365 14.1039 63.8365 12.5013Z" fill="white"/>
<path id="Vector_6" d="M80.6498 5.58567L80.5412 10.0644C80.324 10.0424 80.0416 10.0204 79.7375 10.0204C77.3914 10.0204 76.0446 11.0962 76.0446 14.1698V19.1973H71.0483V5.89303H75.8925V8.59341C76.4573 6.68339 77.739 5.69545 79.9764 5.58567C80.1285 5.56372 80.4543 5.56372 80.6498 5.56372V5.58567Z" fill="white"/>
<path id="Vector_7" d="M94.9435 16.6946C94.9435 17.7264 95.1172 18.4728 95.4648 19.0656V19.1754H90.5989C90.4685 18.7583 90.3817 18.0777 90.3599 17.441C89.6214 18.7143 88.1442 19.5706 86.0371 19.5706C83.3 19.5706 81.2798 18.1216 81.2798 15.4212C81.2798 12.5232 83.691 11.7548 86.6453 11.2718L90.1644 10.6571V10.4815C90.1644 9.93263 90.1644 9.40573 89.8603 9.05446C89.5779 8.68124 89.2086 8.54951 88.4049 8.54951C87.2536 8.54951 86.5802 8.9886 86.6019 10.6571L81.7794 10.3717C81.7794 8.5056 82.4094 7.32007 83.5824 6.55167C84.7989 5.78327 86.5802 5.49786 88.4918 5.49786C92.5322 5.49786 94.9435 6.77121 94.9435 10.1302V16.6946ZM90.1644 14.1259V13.3575L87.8184 13.8624C86.8843 14.082 86.1891 14.3894 86.1891 15.3114C86.1891 16.1457 86.7539 16.5409 87.688 16.5409C88.9914 16.5409 90.1644 15.8822 90.1644 14.1259Z" fill="white"/>
<path id="Vector_8" d="M96.6379 15.2675L101.46 14.7406C101.439 16.2115 102.373 16.7385 103.568 16.7385C104.762 16.7385 105.436 16.3433 105.436 15.5529C105.436 14.8504 104.61 14.6528 102.525 14.2137C99.5271 13.5551 97.029 12.7867 97.029 9.82285C97.029 6.85902 99.9615 5.51981 103.329 5.51981C106.696 5.51981 109.411 6.44189 109.802 9.5594L105.24 10.1961C105.218 8.76904 104.436 8.308 103.35 8.308C102.438 8.308 101.743 8.61536 101.743 9.38376C101.743 10.0863 102.568 10.2839 104.328 10.6132C107.391 11.2718 110.258 11.9524 110.258 15.2456C110.258 18.5387 107.065 19.5925 103.524 19.5925C99.9833 19.5925 96.9855 18.4728 96.6597 15.2895L96.6379 15.2675Z" fill="white"/>
<path id="Vector_9" d="M130.135 19.1754H124.726L123.531 17.8801C122.162 18.9558 120.338 19.5706 118.252 19.5706C113.56 19.5706 111.453 17.0458 111.453 14.4332C111.453 11.8207 112.821 10.4376 115.298 9.16422C113.842 7.56155 113.147 6.50775 113.147 4.81727C113.147 2.31448 115.233 0.338593 119.208 0.338593C122.988 0.338593 125.225 2.1608 125.225 4.90509C125.225 7.40787 123.77 8.70318 121.641 9.86676L123.444 11.8426C123.683 11.2279 123.835 10.5254 123.9 9.75698L128.093 10.3937C127.81 12.4135 127.093 13.8624 126.355 14.9601L130.156 19.1095L130.135 19.1754ZM118.6 16.0359C119.599 16.0359 120.359 15.6846 121.011 15.0919L117.926 11.8207C116.905 12.4354 116.319 13.094 116.319 14.06C116.319 15.3334 117.34 16.0359 118.6 16.0359ZM117.796 4.94899C117.796 5.71739 118.187 6.31016 119.121 7.32006C120.185 6.66143 120.685 6.11257 120.685 5.05877C120.685 4.11473 120.12 3.54392 119.251 3.54392C118.339 3.54392 117.796 4.09278 117.796 4.97095V4.94899Z" fill="white"/>
<path id="Vector_10" d="M135.782 0.777679V19.1754H130.808V0.777679H135.782Z" fill="white"/>
<path id="Vector_11" d="M152.183 13.6429H142.603C142.625 15.4212 143.364 16.453 144.993 16.453C146.34 16.453 146.991 15.7725 147.209 14.5869L152.053 14.9821C151.314 17.9898 148.751 19.5486 144.971 19.5486C142.69 19.5486 140.887 18.868 139.671 17.7264C138.346 16.497 137.672 14.6967 137.672 12.4574C137.672 10.218 138.324 8.5056 139.671 7.27615C140.931 6.09062 142.69 5.45395 144.928 5.45395C147.317 5.45395 149.164 6.17844 150.402 7.4957C151.705 8.87882 152.248 10.9206 152.205 13.599L152.183 13.6429ZM143.125 9.36181C142.864 9.71308 142.712 10.1741 142.625 10.723H147.209C147.122 10.0863 146.97 9.58136 146.666 9.23009C146.296 8.74709 145.775 8.57146 144.971 8.57146C144.124 8.57146 143.538 8.81296 143.125 9.36181Z" fill="white"/>
<path id="Vector_12" d="M162.849 5.89304H167.758V18.9778C167.758 22.71 165.087 24.5103 160.764 24.5103C157.071 24.5103 154.355 23.2369 154.138 19.8999L158.917 19.5925C159.026 20.8659 159.678 21.3708 160.894 21.3708C162.306 21.3708 162.849 20.5585 162.849 18.9998V16.98C162.154 18.2753 161.09 18.9558 159.2 18.9558C155.811 18.9558 153.508 16.2774 153.508 12.15C153.508 8.02261 155.92 5.49786 159.135 5.49786C160.959 5.49786 162.132 6.26626 162.849 7.4518V5.89304ZM162.284 15.2675C162.784 14.6967 162.958 13.6868 162.958 12.172C162.958 9.88872 162.393 8.68124 160.894 8.68124C160.177 8.68124 159.656 8.90078 159.287 9.31791C158.852 9.86677 158.678 10.7888 158.678 12.1939C158.678 14.8943 159.243 15.8822 160.829 15.8822C161.437 15.8822 161.915 15.7066 162.263 15.3114L162.284 15.2675Z" fill="white"/>
<path id="Vector_13" d="M179.011 5.89304H183.92V18.9778C183.92 22.71 181.248 24.5103 176.926 24.5103C173.233 24.5103 170.517 23.2369 170.3 19.8999L175.079 19.5925C175.188 20.8659 175.839 21.3708 177.056 21.3708C178.468 21.3708 179.011 20.5585 179.011 18.9998V16.98C178.316 18.2753 177.251 18.9558 175.362 18.9558C171.973 18.9558 169.67 16.2774 169.67 12.15C169.67 8.02261 172.081 5.49786 175.296 5.49786C177.121 5.49786 178.294 6.26626 179.011 7.4518V5.89304ZM178.446 15.2675C178.946 14.6967 179.12 13.6868 179.12 12.172C179.12 9.88872 178.555 8.68124 177.056 8.68124C176.339 8.68124 175.818 8.90078 175.448 9.31791C175.014 9.86677 174.84 10.7888 174.84 12.1939C174.84 14.8943 175.405 15.8822 176.991 15.8822C177.599 15.8822 178.077 15.7066 178.424 15.3114L178.446 15.2675Z" fill="white"/>
<path id="Vector_14" d="M186.418 0.162964H191.415V4.37819H186.418V0.162964ZM191.415 5.89303V19.1754H186.418V5.89303H191.415Z" fill="white"/>
<path id="Vector_15" d="M207.555 10.9864V19.1754H202.537V11.4914C202.537 10.5474 202.493 9.99849 202.059 9.60332C201.69 9.29596 201.364 9.20814 200.777 9.20814C199.865 9.20814 198.909 9.84481 198.909 11.9085V19.1754H193.913V5.89304H198.8V7.84697C199.452 6.31017 200.886 5.49786 202.884 5.49786C204.448 5.49786 205.491 5.87109 206.295 6.66144C207.294 7.62743 207.555 9.07641 207.555 11.0084V10.9864Z" fill="white"/>
<path id="Vector_16" d="M218.72 5.89304H223.63V18.9778C223.63 22.71 220.958 24.5103 216.635 24.5103C212.942 24.5103 210.227 23.2369 210.009 19.8999L214.788 19.5925C214.897 20.8659 215.549 21.3708 216.765 21.3708C218.177 21.3708 218.72 20.5585 218.72 18.9998V16.98C218.025 18.2753 216.961 18.9558 215.071 18.9558C211.682 18.9558 209.379 16.2774 209.379 12.15C209.379 8.02261 211.791 5.49786 215.006 5.49786C216.83 5.49786 218.003 6.26626 218.72 7.4518V5.89304ZM218.134 15.2675C218.633 14.6967 218.807 13.6868 218.807 12.172C218.807 9.88872 218.242 8.68124 216.743 8.68124C216.027 8.68124 215.505 8.90078 215.136 9.31791C214.701 9.86677 214.528 10.7888 214.528 12.1939C214.528 14.8943 215.093 15.8822 216.678 15.8822C217.287 15.8822 217.764 15.7066 218.112 15.3114L218.134 15.2675Z" fill="white"/>
<path id="Vector_17" d="M225.346 15.2675L230.168 14.7406C230.146 16.2115 231.081 16.7385 232.275 16.7385C233.47 16.7385 234.143 16.3433 234.143 15.5529C234.143 14.8504 233.318 14.6528 231.233 14.2137C228.235 13.5551 225.737 12.7867 225.737 9.82285C225.737 6.85902 228.669 5.51981 232.036 5.51981C235.403 5.51981 238.119 6.44189 238.51 9.5594L233.948 10.1961C233.926 8.76904 233.144 8.308 232.058 8.308C231.146 8.308 230.451 8.61536 230.451 9.38376C230.451 10.0863 231.276 10.2839 233.036 10.6132C236.099 11.2718 238.966 11.9524 238.966 15.2456C238.966 18.5387 235.773 19.5925 232.232 19.5925C228.691 19.5925 225.693 18.4728 225.367 15.2895L225.346 15.2675Z" fill="white"/>
</g>
<defs>
<clipPath id="clip0_522_53">
<rect width="238.604" height="24.3473" fill="white" transform="translate(0.362305 0.162964)"/>
</clipPath>
</defs>
</svg>
