<svg width="14" height="11" viewBox="0 0 14 11" fill="none" xmlns="http://www.w3.org/2000/svg">
<path id="Vector" d="M13.2912 0.520793L1.04086 0.520794C0.916827 0.521183 0.795252 0.555452 0.689218 0.619909C0.583184 0.684365 0.496708 0.776571 0.439095 0.8866C0.381481 0.996629 0.354913 1.12032 0.362251 1.24435C0.369591 1.36838 0.410557 1.48805 0.480742 1.59049L6.60592 10.4535C6.85977 10.821 7.47093 10.821 7.72546 10.4535L13.8506 1.59049C13.9215 1.48827 13.9631 1.36853 13.9708 1.24429C13.9786 1.12006 13.9522 0.99607 13.8945 0.885808C13.8369 0.775545 13.7501 0.683222 13.6438 0.618869C13.5374 0.554517 13.4155 0.520597 13.2912 0.520793Z" fill="black"/>
</svg>
