<svg id="Layer_1" data-name="Layer 1" xmlns="http://www.w3.org/2000/svg" viewBox="0 0 4651.91 1080"><path d="M3075.22,538.53a13.23,13.23,0,0,0,11,5.37,11.93,11.93,0,0,0,9.49-4q3.45-4,3.75-10.74h22.37q-.6,15.17-10,23.77t-25.6,8.6a45.43,45.43,0,0,1-15.16-2.42,30.94,30.94,0,0,1-11.84-7.36,34.57,34.57,0,0,1-7.73-12.21,47.4,47.4,0,0,1-2.79-17,48,48,0,0,1,2.79-17.07,33.7,33.7,0,0,1,7.73-12.21A31.39,31.39,0,0,1,3071,486a45.43,45.43,0,0,1,15.16-2.43q16.18,0,25.6,8.53t10,23.84h-22.37q-.3-6.77-3.75-10.74a11.93,11.93,0,0,0-9.49-4,13.23,13.23,0,0,0-11,5.37q-4.2,5.37-4.2,16T3075.22,538.53Z"/><path d="M3126.78,485.78h22.08v44.58q0,6.61,2.87,9.79c1.91,2.1,4.63,3.16,8.16,3.16a11.81,11.81,0,0,0,9.2-3.83q3.45-3.83,3.46-11.33V485.78h22.07v73.57h-20.9V546.69a23.27,23.27,0,0,1-9.34,11,26.66,26.66,0,0,1-14.2,3.82q-10.44,0-16.92-6.69t-6.48-20.53Z"/><path d="M3261.56,554.71q-9.55,6.84-23.69,6.84a45.42,45.42,0,0,1-15.15-2.42,32.13,32.13,0,0,1-11.92-7.29,32.89,32.89,0,0,1-7.8-12.21,53.43,53.43,0,0,1,0-34.14,33.06,33.06,0,0,1,7.8-12.21,32.1,32.1,0,0,1,11.92-7.28,45.42,45.42,0,0,1,15.15-2.43,41.74,41.74,0,0,1,14.35,2.43,30.45,30.45,0,0,1,11.48,7.28,34.78,34.78,0,0,1,7.57,12.21,47.8,47.8,0,0,1,2.8,17.07v2.8a23.67,23.67,0,0,1-.15,2.65h-52.67q.59,8.54,5.07,12.72a16.22,16.22,0,0,0,11.55,4.2q5.45,0,8.61-2.28a11.45,11.45,0,0,0,4.34-6.11h22.07A26.62,26.62,0,0,1,3261.56,554.71Zm-34.58-51q-4.41,3.67-5.44,11h31.34q-.89-7.35-4.93-11a14.44,14.44,0,0,0-10.08-3.68A16.48,16.48,0,0,0,3227,503.73Z"/><path d="M3307.17,509.76q-5,4.71-5,14.86v34.73H3280.1V485.78h20v17.07q2.79-9,8.46-13.39a21,21,0,0,1,13.32-4.42,21.36,21.36,0,0,1,3.16.22c.93.15,1.79.32,2.57.52v20c-1-.2-2-.37-3.09-.52a30,30,0,0,0-3.82-.22Q3312.18,505.05,3307.17,509.76Z"/><path d="M3363.89,558.17a25,25,0,0,1-10.08-10.45v41.06h-22.07v-103h20.75V499.9a26.46,26.46,0,0,1,10.3-12.28,28.18,28.18,0,0,1,15-4.05,26.56,26.56,0,0,1,21,9.56q8.23,9.57,8.24,29.43T3398.84,552a26.53,26.53,0,0,1-21,9.56A28.72,28.72,0,0,1,3363.89,558.17Zm16.7-19.64q4.13-5.37,4.12-16t-4.12-16a13.48,13.48,0,0,0-11.33-5.37q-7.35,0-11.4,5.37t-4.05,16q0,10.59,4.05,16t11.4,5.37A13.48,13.48,0,0,0,3380.59,538.53Z"/><path d="M3433,559.13a30.94,30.94,0,0,1-11.84-7.36,34.43,34.43,0,0,1-7.73-12.21,47.4,47.4,0,0,1-2.79-17,48,48,0,0,1,2.79-17.07,33.57,33.57,0,0,1,7.73-12.21A31.39,31.39,0,0,1,3433,486a48.47,48.47,0,0,1,30.31,0,31.51,31.51,0,0,1,11.85,7.28,33.68,33.68,0,0,1,7.72,12.21,47.8,47.8,0,0,1,2.8,17.07,47.18,47.18,0,0,1-2.8,17,34.55,34.55,0,0,1-7.72,12.21,31.06,31.06,0,0,1-11.85,7.36,48.66,48.66,0,0,1-30.31,0Zm26.19-20.6q4-5.37,4-16t-4-16a13,13,0,0,0-11-5.37,13.11,13.11,0,0,0-11.19,5.37q-4,5.37-4,16t4,16a13.11,13.11,0,0,0,11.19,5.37A13,13,0,0,0,3459.16,538.53Z"/><path d="M3512.13,559.35h-24.28V536.1h24.28Z"/><path d="M3563,498.28a22.57,22.57,0,0,1,8.9-11,25.27,25.27,0,0,1,13.75-3.75,23.31,23.31,0,0,1,13,3.6,19.72,19.72,0,0,1,7.87,11,22.83,22.83,0,0,1,9.12-10.89,26,26,0,0,1,13.83-3.68q10.15,0,16.48,6.55t6.33,20.23v49h-22.07v-45q0-6.47-2.65-9.56t-7.65-3.09a10.42,10.42,0,0,0-8.46,3.82q-3.17,3.83-3.17,11v42.82h-22.07v-45q0-6.47-2.65-9.56t-7.65-3.09a10.42,10.42,0,0,0-8.46,3.82q-3.17,3.83-3.16,11v42.82h-22.07V485.78H3563Z"/><path d="M3719,554.71q-9.57,6.84-23.69,6.84a45.48,45.48,0,0,1-15.16-2.42,32.09,32.09,0,0,1-11.91-7.29,32.89,32.89,0,0,1-7.8-12.21,53.43,53.43,0,0,1,0-34.14,33.06,33.06,0,0,1,7.8-12.21,32.06,32.06,0,0,1,11.91-7.28,45.47,45.47,0,0,1,15.16-2.43,41.78,41.78,0,0,1,14.35,2.43,30.41,30.41,0,0,1,11.47,7.28,34.66,34.66,0,0,1,7.58,12.21,48,48,0,0,1,2.8,17.07v2.8a23.67,23.67,0,0,1-.15,2.65h-52.68q.6,8.54,5.08,12.72a16.22,16.22,0,0,0,11.55,4.2q5.45,0,8.61-2.28a11.51,11.51,0,0,0,4.34-6.11h22.07A26.62,26.62,0,0,1,3719,554.71Zm-34.58-51q-4.41,3.67-5.44,11h31.34q-.89-7.35-4.93-11a14.44,14.44,0,0,0-10.08-3.68A16.44,16.44,0,0,0,3684.42,503.73Z"/><path d="M3758.28,499a23.84,23.84,0,0,1,9.42-11.48,27.06,27.06,0,0,1,14.71-4q10.74,0,17.44,6.69t6.69,20.83v48.26h-22.07V515.06q0-6.76-3.09-10.08t-8.68-3.31a12.2,12.2,0,0,0-9.49,4q-3.6,4-3.6,11.63v42.08h-22.07V485.78h20.74Z"/><path d="M3844.21,539.63q2.2,2.05,6.62,2.06h8.39v17.66h-16.34q-10.89,0-16.77-4.93t-5.89-17.29v-33.7h-11V485.78h11V466.65H3842v19.13h17.22v17.65H3842v28.7Q3842,537.58,3844.21,539.63Z"/><path d="M3922.48,554.71q-9.55,6.84-23.69,6.84a45.42,45.42,0,0,1-15.15-2.42,32.21,32.21,0,0,1-11.92-7.29,33,33,0,0,1-7.8-12.21,53.61,53.61,0,0,1,0-34.14,33.18,33.18,0,0,1,7.8-12.21,32.18,32.18,0,0,1,11.92-7.28,45.42,45.42,0,0,1,15.15-2.43,41.74,41.74,0,0,1,14.35,2.43,30.45,30.45,0,0,1,11.48,7.28,34.78,34.78,0,0,1,7.57,12.21,47.8,47.8,0,0,1,2.8,17.07v2.8a23.67,23.67,0,0,1-.15,2.65h-52.67q.59,8.54,5.07,12.72a16.24,16.24,0,0,0,11.55,4.2q5.45,0,8.61-2.28a11.45,11.45,0,0,0,4.34-6.11h22.07A26.58,26.58,0,0,1,3922.48,554.71Zm-34.57-51q-4.42,3.67-5.45,11h31.34q-.89-7.35-4.93-11a14.43,14.43,0,0,0-10.08-3.68A16.43,16.43,0,0,0,3887.91,503.73Z"/><path d="M3961.62,559.35h-24.28V536.1h24.28Z"/><path d="M3982.22,485.78h21.92l6.91,19.71q2.8,8.4,4.93,15.67t4.05,15.09q1.92-7.8,4.12-15.09t5-15.67l6.77-19.71H4058l-27.22,73.57h-21.33Z"/><path d="M4082.27,475.48H4060.2V456.35h22.07Zm0,83.87H4060.2V485.78h22.07Z"/><path d="M4143.18,545.22a26.54,26.54,0,0,1-10.3,12.29,28.17,28.17,0,0,1-15,4,26.53,26.53,0,0,1-21-9.56q-8.23-9.57-8.24-29.43t8.24-29.43a26.56,26.56,0,0,1,21-9.56,28.83,28.83,0,0,1,13.91,3.38,25.22,25.22,0,0,1,10.08,10.3v-40.9h22.07v103h-20.75Zm-28.1-38.62q-4.12,5.37-4.12,16t4.12,16a13.48,13.48,0,0,0,11.33,5.37q7.35,0,11.4-5.37t4-16q0-10.59-4-16t-11.4-5.37A13.48,13.48,0,0,0,4115.08,506.6Z"/><path d="M4221.46,559.35l-4.27-12.22a23.43,23.43,0,0,1-9.56,10.08,28.87,28.87,0,0,1-14.57,3.61q-10.59,0-17.22-5.59t-6.62-16q0-11.78,7.36-16.11a48.8,48.8,0,0,1,16.18-6q8.83-1.62,16.19-2.87c4.9-.83,7.36-3.12,7.36-6.84a6.64,6.64,0,0,0-3-6q-3-1.9-8.46-1.91a13.94,13.94,0,0,0-8.17,2.13,7.55,7.55,0,0,0-3.16,6.26h-22.22q0-12.08,9-18.17t24.57-6.11q15.75,0,24.65,6.18t8.9,18.39v30.61c0,2.35,0,4.29.07,5.81a24,24,0,0,0,.52,4.34,30.31,30.31,0,0,0,1.32,4.41q.89,2.36,2.5,6Zm-27.22-16.41q2.64,2,7.5,2a14.68,14.68,0,0,0,10-4.12q4.56-4.12,4.56-12.07V520.5a32.86,32.86,0,0,1-7.88,3.53q-4.34,1.34-8.09,2.8a20.9,20.9,0,0,0-6.25,3.68,7.44,7.44,0,0,0-2.5,5.88C4191.59,539.43,4192.47,541.62,4194.24,542.94Z"/><path d="M4268.68,559.35h-24.27V536.1h24.27Z"/><path d="M908.11,481.11l10.78,41.47c7.44,31,12.64,58.28,17.1,86.29,5.2-27.27,11.15-53.79,19-85.55l11.15-42.21h52l11.52,42.21c7.43,31.76,13.38,58.28,18.95,85.55a840.57,840.57,0,0,1,17.1-86.29l10.4-41.47h52.78l-52.4,186.79h-52l-13.38-49.69c-8.17-31-13.75-56.41-18.95-83.68-5.2,27.27-10.78,52.68-19,83.68L959.77,667.9h-52l-52-186.79Z"/><path d="M1214.74,673.5c-55.38,0-95.15-32.87-95.15-99,0-66.5,39.77-99,95.15-99,52,0,91.42,32.87,91.42,99,0,4.85,0,9.33-.37,13.82h-133c1.86,29.14,18.21,43,42,43,18.58,0,28.61-8.22,32.7-21.3h55.75C1297.24,648.47,1262.31,673.5,1214.74,673.5Zm-41.26-118.79h79.17c-3-25-17.47-37.36-37.91-37.36C1192.81,517.35,1176.83,529.67,1173.48,554.71Z"/><path d="M1373.43,667.9h-55.74V406.39h55.74Z"/><path d="M1440.7,667.9H1385V406.39h55.75Z"/><path d="M1607.73,628.67c20.44,0,32.33-14.19,33.45-37.35h56.49c-1.86,51.55-35.31,82.18-89.94,82.18-55.38,0-94.78-33.24-94.78-99,0-66.13,39.4-99,94.78-99,54.63,0,88.08,30.26,89.94,82.18h-56.49c-1.12-23.16-13-37.35-33.45-37.35-23,0-38.28,17.93-38.28,54.17C1569.45,610.37,1584.68,628.67,1607.73,628.67Z"/><path d="M1701.84,574.51c0-66.13,39.4-99,94.77-99s94.78,32.87,94.78,99c0,65.75-39.4,99-94.78,99S1701.84,640.26,1701.84,574.51Zm132.68,0c0-36.24-14.12-54.17-37.91-54.17-24.15,0-38.28,17.93-38.28,54.17,0,35.86,14.13,54.16,38.28,54.16C1820.4,628.67,1834.52,610.37,1834.52,574.51Z"/><path d="M1958.48,667.9h-55.74V406.39h55.74Z"/><path d="M2025.91,667.9h-55.74V406.39h55.74Z"/><path d="M2132.88,673.5c-55.38,0-95.15-32.87-95.15-99,0-66.5,39.77-99,95.15-99,52,0,91.43,32.87,91.43,99,0,4.85,0,9.33-.38,13.82h-133c1.86,29.14,18.21,43,42,43,18.58,0,28.62-8.22,32.7-21.3h55.75C2215.39,648.47,2180.45,673.5,2132.88,673.5Zm-41.26-118.79h79.17c-3-25-17.47-37.36-37.91-37.36C2111,517.35,2095,529.67,2091.62,554.71Z"/><path d="M2330.9,628.67c20.44,0,32.33-14.19,33.45-37.35h56.49c-1.86,51.55-35.31,82.18-89.94,82.18-55.38,0-94.77-33.24-94.77-99,0-66.13,39.39-99,94.77-99,54.63,0,88.08,30.26,89.94,82.18h-56.49c-1.12-23.16-13-37.35-33.45-37.35-23,0-38.28,17.93-38.28,54.17C2292.62,610.37,2307.86,628.67,2330.9,628.67Z"/><path d="M2521.79,623.07H2543V667.9h-41.25c-36.8,0-57.24-14.57-57.24-56.41V525.94h-27.87V481.11h27.87V432.54h55v48.57H2543v44.83h-43.48v72.85C2499.49,617.09,2506.92,623.07,2521.79,623.07Z"/><path d="M2608.49,455h-55.75V406.39h55.75Zm0,212.94h-55.75V481.11h55.75Z"/><path d="M2610.35,481.11h55.37l17.47,50.06c9.29,28.77,16.35,51.55,22.67,78.08,6.32-26.53,13.38-49.31,23-78.08l17.1-50.06h55.75L2733,667.9H2679.1Z"/><path d="M2883.57,673.5c-55.38,0-95.15-32.87-95.15-99,0-66.5,39.77-99,95.15-99,52,0,91.43,32.87,91.43,99,0,4.85,0,9.33-.37,13.82H2841.57c1.86,29.14,18.21,43,42,43,18.58,0,28.62-8.22,32.7-21.3H2972C2966.08,648.47,2931.14,673.5,2883.57,673.5Zm-41.26-118.79h79.17c-3-25-17.47-37.36-37.91-37.36C2861.64,517.35,2845.66,529.67,2842.31,554.71Z"/><path d="M805.71,481.11,415.61,651.45c-42,18.33-108,39.51-135.9-5.15-15.53-24.82-6.06-63.63,16.37-99.2,14.3-22.71,32.7-43.57,51.2-64.38-10.36,17-38.82,73.91-.62,101.79,14.89,10.85,40.94,11.81,73.19,2.9Z"/></svg>