<svg width="309" height="18" viewBox="0 0 309 18" fill="none" xmlns="http://www.w3.org/2000/svg">
<path d="M265.314 5.95397L265.355 5.91272L265.583 5.91272L265.624 5.95397C265.624 6.27023 265.652 6.47649 265.686 6.57962C265.769 6.82712 265.969 6.999 266.286 7.10213C266.603 7.19839 266.934 7.25339 267.279 7.25339C267.762 7.25339 268.176 7.10901 268.52 6.82712C268.865 6.54524 269.045 6.1671 269.045 5.69958C269.045 5.46583 269.003 5.26645 268.927 5.10144C268.851 4.93643 268.727 4.8058 268.569 4.70268C268.41 4.59955 268.252 4.52392 268.093 4.46892C267.941 4.42079 267.734 4.36579 267.493 4.31079C267.065 4.20078 266.845 4.14578 266.824 4.13891C266.314 3.98765 265.955 3.80202 265.748 3.57514C265.459 3.31388 265.314 2.92199 265.314 2.40635C265.314 1.7807 265.562 1.28568 266.065 0.914422C266.569 0.543159 267.141 0.357527 267.789 0.357527C268.438 0.357527 268.996 0.446906 269.472 0.632537L269.5 0.694414C269.424 1.10693 269.382 1.56069 269.376 2.04884L269.327 2.09009L269.079 2.09009L269.038 2.04884C269.024 1.76008 269.003 1.54694 268.976 1.40256C268.9 1.17568 268.741 1.01067 268.493 0.914422C268.245 0.818169 267.983 0.763166 267.707 0.763166C267.293 0.763166 266.941 0.866295 266.645 1.07943C266.348 1.29256 266.203 1.59507 266.203 1.99383C266.203 2.44072 266.341 2.75698 266.624 2.95637C266.9 3.14887 267.3 3.307 267.817 3.42388C268.058 3.47201 268.293 3.52013 268.52 3.57514C268.748 3.64389 268.907 3.69202 268.996 3.72639C269.086 3.76077 269.196 3.81577 269.334 3.89827C269.472 3.9739 269.582 4.07015 269.665 4.17328C269.748 4.27641 269.824 4.41392 269.893 4.57892C269.976 4.77143 270.017 5.00519 270.017 5.2802C270.017 5.91272 269.713 6.48336 269.1 6.999C268.541 7.4734 267.886 7.70715 267.121 7.70715C266.328 7.70715 265.721 7.62465 265.293 7.45277L265.266 7.39089C265.3 7.06776 265.321 6.58649 265.334 5.95397L265.314 5.95397Z" fill="#CFFF5E"/>
<path d="M270.079 5.14965C270.079 4.40713 270.314 3.82961 270.789 3.41022C271.265 2.99083 271.872 2.7777 272.603 2.7777C273.348 2.7777 273.92 2.99771 274.327 3.43772C274.734 3.87774 274.934 4.47588 274.934 5.21841C274.934 5.96093 274.706 6.51783 274.244 6.98534C273.782 7.45286 273.196 7.68661 272.479 7.68661C271.686 7.68661 271.093 7.45973 270.686 7.01284C270.279 6.56595 270.079 5.94031 270.079 5.14965ZM271.01 5.1359C271.01 5.7203 271.134 6.23594 271.382 6.67596C271.631 7.12285 272.024 7.34285 272.555 7.34285C272.907 7.34285 273.189 7.23972 273.417 7.02659C273.637 6.82034 273.789 6.57283 273.865 6.29782C273.941 6.02281 273.975 5.71342 273.975 5.36966C273.975 3.85711 273.465 3.10083 272.438 3.10083C271.941 3.10083 271.582 3.30709 271.348 3.71273C271.12 4.11837 271.003 4.59276 271.003 5.1359L271.01 5.1359Z" fill="#CFFF5E"/>
<path d="M276.355 3.77454L276.589 3.52703C276.858 3.2589 277.093 3.06639 277.293 2.94951C277.493 2.83263 277.741 2.77763 278.044 2.77763C278.658 2.77763 279.134 2.95639 279.485 3.32078C279.83 3.68516 280.01 4.17331 280.01 4.77833C280.01 5.14271 279.948 5.49335 279.823 5.84399C279.699 6.18775 279.513 6.46276 279.258 6.66214C279.017 6.85465 278.83 6.99903 278.692 7.10216C278.555 7.20528 278.361 7.31529 278.106 7.43904C277.851 7.55592 277.624 7.6178 277.417 7.6178C276.989 7.6178 276.637 7.54217 276.362 7.39092L276.362 7.70718C276.362 8.88284 276.382 9.59787 276.424 9.84538C276.451 9.95538 276.506 10.0241 276.596 10.0516C276.713 10.0791 276.879 10.0929 277.093 10.0929L277.134 10.1341L277.134 10.3473L277.106 10.3885C276.768 10.361 276.382 10.3473 275.955 10.3473C275.548 10.3473 275.182 10.361 274.865 10.3885L274.817 10.3473L274.817 10.1341L274.865 10.0929C275.051 10.0929 275.196 10.0791 275.3 10.0516C275.41 10.0173 275.465 9.9485 275.472 9.84538C275.513 9.43286 275.534 8.71784 275.534 7.70718L275.534 4.57207C275.534 4.02893 275.52 3.68516 275.493 3.54078C275.479 3.43766 275.375 3.38953 275.175 3.38953L274.838 3.38953L274.796 3.34828L274.796 3.13515L274.838 3.09389C275.375 3.06639 275.865 2.96326 276.313 2.78451L276.396 2.84638C276.382 2.98389 276.375 3.29328 276.375 3.77454L276.355 3.77454ZM276.355 4.60645L276.355 6.53839C276.403 6.73089 276.548 6.87527 276.782 6.97153C277.017 7.06778 277.258 7.11591 277.486 7.11591C278.051 7.11591 278.465 6.93715 278.727 6.57276C278.989 6.21525 279.127 5.74086 279.127 5.15646C279.127 4.63395 278.996 4.21456 278.741 3.8983C278.486 3.58204 278.099 3.41703 277.589 3.41703C277.286 3.41703 277.003 3.54078 276.741 3.78142C276.479 4.02205 276.348 4.29706 276.348 4.59957L276.355 4.60645Z" fill="#CFFF5E"/>
<path d="M280.12 5.14965C280.12 4.40713 280.354 3.82961 280.83 3.41022C281.306 2.99083 281.906 2.7777 282.644 2.7777C283.382 2.7777 283.961 2.99771 284.368 3.43772C284.775 3.87774 284.975 4.47588 284.975 5.21841C284.975 5.96093 284.747 6.51783 284.285 6.98534C283.823 7.45286 283.237 7.68661 282.52 7.68661C281.727 7.68661 281.134 7.45973 280.727 7.01284C280.32 6.56595 280.12 5.94031 280.12 5.14965ZM281.051 5.1359C281.051 5.7203 281.175 6.23594 281.423 6.67596C281.672 7.12285 282.065 7.34285 282.596 7.34285C282.947 7.34285 283.23 7.23972 283.458 7.02659C283.678 6.82034 283.83 6.57283 283.906 6.29782C283.982 6.02281 284.016 5.71342 284.016 5.36966C284.016 3.85711 283.506 3.10083 282.478 3.10083C281.982 3.10083 281.623 3.30709 281.389 3.71273C281.161 4.11837 281.044 4.59276 281.044 5.1359L281.051 5.1359Z" fill="#CFFF5E"/>
<path d="M286.575 4.35203C286.513 4.47578 286.485 4.71641 286.485 5.07393L286.485 5.55519C286.485 6.29772 286.506 6.78586 286.547 7.02649C286.575 7.1365 286.63 7.20525 286.72 7.23275L286.761 7.2465C286.761 7.2465 286.816 7.2465 286.864 7.2465C286.913 7.2465 286.961 7.2465 287.016 7.2465C287.064 7.2465 287.113 7.2465 287.168 7.2465C287.223 7.2465 287.264 7.25338 287.299 7.25338C287.326 7.25338 287.354 7.25338 287.368 7.25338L287.409 7.29463L287.409 7.50776L287.382 7.54901C287.044 7.52151 286.609 7.50776 286.071 7.50776C285.665 7.50776 285.299 7.52151 284.975 7.54901L284.927 7.50776L284.927 7.29463L284.975 7.25338C285.161 7.25338 285.306 7.23963 285.409 7.21212C285.52 7.17775 285.575 7.109 285.582 7.00587C285.623 6.6071 285.644 6.11896 285.644 5.54832L285.644 4.74392C285.644 4.07702 285.63 3.67138 285.602 3.53387C285.589 3.43075 285.478 3.38262 285.271 3.38262L284.94 3.38262L284.899 3.34137L284.899 3.12823L284.94 3.08698C285.506 3.05948 286.002 2.95635 286.437 2.7776L286.527 2.83948C286.499 3.01136 286.485 3.37574 286.485 3.93264C286.485 3.93264 286.513 3.89139 286.575 3.82263C286.63 3.75388 286.685 3.692 286.733 3.637C286.823 3.52012 286.885 3.4445 286.92 3.41012C287.251 2.98385 287.623 2.77072 288.044 2.77072C288.161 2.77072 288.264 2.79135 288.361 2.8326L288.388 2.90135C288.333 3.21761 288.306 3.56137 288.306 3.93951L288.278 3.96701L288.113 3.96701L288.085 3.94639C288.009 3.65763 287.823 3.51325 287.526 3.51325C287.333 3.51325 287.147 3.60263 286.968 3.77451C286.789 3.94639 286.651 4.13889 286.568 4.3314L286.575 4.35203Z" fill="#CFFF5E"/>
<path d="M288.45 6.32526L288.478 3.39641L287.65 3.39641L287.602 3.35516L287.602 3.16265L287.644 3.11453L288.478 2.9839C288.478 2.04887 288.471 1.5126 288.45 1.36822C288.671 1.29259 288.954 1.16884 289.306 0.990079L289.409 1.09321C289.34 1.50572 289.306 2.14512 289.306 3.00452L289.864 3.00452C289.981 3.00452 290.257 3.00452 290.699 2.9839L290.747 3.04578L290.595 3.35516L290.554 3.40329L289.306 3.40329L289.278 5.54149C289.278 5.71337 289.278 5.85087 289.285 5.96088C289.285 6.07088 289.312 6.20151 289.34 6.35964C289.368 6.51777 289.416 6.64152 289.478 6.73778C289.54 6.83403 289.63 6.90966 289.747 6.97841C289.864 7.04716 290.002 7.08154 290.168 7.08154C290.354 7.08154 290.54 7.06091 290.726 7.01279L290.747 7.13654C290.705 7.15717 290.609 7.21904 290.45 7.32905C290.34 7.41155 290.243 7.4803 290.154 7.54218C290.016 7.59031 289.837 7.61093 289.616 7.61093C289.154 7.61093 288.85 7.50093 288.699 7.27404C288.533 7.06091 288.45 6.74465 288.45 6.32526Z" fill="#CFFF5E"/>
<path d="M294.381 6.7172L294.464 6.7997L294.298 7.15034C293.809 7.51473 293.257 7.69348 292.65 7.69348C291.926 7.69348 291.36 7.48035 290.94 7.06096C290.519 6.64157 290.312 6.07093 290.312 5.34903C290.312 4.88151 290.374 4.48275 290.498 4.15273C290.623 3.82272 290.85 3.54771 291.188 3.33458C291.691 2.96332 292.209 2.77769 292.733 2.77769C293.34 2.77769 293.802 2.93582 294.126 3.25895C294.45 3.58209 294.609 4.04961 294.609 4.65463C294.609 4.72338 294.602 4.84026 294.588 5.00526L294.54 5.05339C294.291 5.14277 293.733 5.18402 292.857 5.18402L291.271 5.18402C291.271 5.77529 291.423 6.24968 291.719 6.60719C292.016 6.96471 292.457 7.15034 293.036 7.15034C293.519 7.15034 293.967 7.00596 294.388 6.71032L294.381 6.7172ZM291.264 4.79213C291.643 4.82651 292.167 4.84026 292.829 4.84026C293.298 4.84026 293.581 4.82651 293.684 4.81276L293.684 4.62713C293.684 3.61647 293.298 3.11457 292.519 3.11457C292.064 3.11457 291.74 3.27271 291.547 3.59584C291.354 3.9121 291.257 4.31087 291.257 4.79213L291.264 4.79213Z" fill="#CFFF5E"/>
<path d="M300.05 5.89902L300.05 6.27029C300.05 6.61405 300.077 6.85468 300.132 6.99906C300.181 7.14344 300.298 7.22594 300.484 7.24657L300.739 7.27407L300.781 7.31532L300.781 7.52158L300.739 7.54908C300.519 7.52845 300.27 7.52158 299.994 7.52158C299.788 7.52158 299.546 7.52845 299.27 7.54908L299.201 7.4872L299.222 6.6828L298.139 7.52845C297.926 7.60408 297.726 7.63846 297.539 7.63846C297.153 7.63846 296.843 7.52845 296.608 7.30157C296.374 7.07469 296.257 6.77218 296.257 6.38716C296.257 5.95403 296.408 5.60339 296.712 5.33525C297.043 5.06712 297.877 4.82649 299.215 4.61335C299.215 3.72645 298.808 3.28643 298.001 3.28643C297.615 3.28643 297.36 3.36206 297.229 3.51332C297.16 3.58207 297.07 3.78145 296.96 4.11834L296.933 4.13896L296.705 4.09084L296.677 4.04271L296.677 3.45831C296.677 3.45831 296.712 3.38956 296.767 3.35519C297.339 2.9633 297.884 2.77079 298.408 2.77079C298.932 2.77079 299.332 2.89455 299.622 3.14893C299.919 3.39644 300.063 3.77458 300.063 4.27647C300.063 4.51023 300.063 4.74398 300.056 4.98462C300.05 5.23213 300.043 5.53464 300.043 5.89902L300.05 5.89902ZM299.222 6.27716L299.222 4.92962C298.394 5.09462 297.857 5.24588 297.595 5.39026C297.291 5.55526 297.139 5.81652 297.139 6.17403C297.139 6.75155 297.395 7.04031 297.912 7.04031C298.36 7.04031 298.794 6.78593 299.222 6.27716Z" fill="#CFFF5E"/>
<path d="M260.328 15.4627L260.328 12.5545C260.328 11.8944 260.314 11.4682 260.287 11.2688L259.252 11.2688C258.756 11.2688 258.452 11.3032 258.335 11.3788C258.287 11.4063 258.245 11.7363 258.204 12.3757L258.176 12.4238L257.942 12.4238L257.901 12.3826C257.894 11.5713 257.88 11.0488 257.859 10.8081L257.901 10.7669C258.363 10.7944 259.321 10.8081 260.79 10.8081C262.273 10.8081 263.238 10.7944 263.686 10.7669L263.735 10.8081C263.7 11.1725 263.686 11.6951 263.686 12.3826L263.645 12.4238L263.417 12.4238L263.376 12.3757C263.328 11.9563 263.293 11.6744 263.266 11.53C263.245 11.4407 263.217 11.3788 263.183 11.3444C263.107 11.2894 262.873 11.2619 262.48 11.2619L261.307 11.2619C261.28 11.4613 261.266 11.8876 261.266 12.5476L261.266 15.4627C261.266 16.1571 261.266 16.6452 261.286 16.934C261.286 17.1334 261.328 17.2777 261.39 17.374C261.473 17.4565 261.68 17.5046 262.017 17.5253L262.059 17.5528L262.059 17.8209L262.017 17.8484C261.604 17.8209 261.197 17.8071 260.804 17.8071C260.411 17.8071 259.99 17.8209 259.576 17.8484L259.535 17.8209L259.535 17.5665L259.576 17.539C259.935 17.5046 260.149 17.4565 260.218 17.3877C260.28 17.2915 260.314 17.1471 260.321 16.9477C260.335 16.659 260.342 16.1708 260.342 15.4764L260.328 15.4627Z" fill="#CFFF5E"/>
<path d="M266.341 17.8413L266.279 17.7932C266.314 17.6351 266.335 17.3807 266.341 17.03C266.169 17.1469 265.872 17.4082 265.445 17.8138C265.273 17.9238 265.031 17.9788 264.721 17.9788C263.617 17.9788 263.073 17.4082 263.073 16.26C263.073 16.095 263.08 15.8062 263.1 15.3937C263.1 15.2837 263.1 15.1737 263.1 15.0568C263.1 14.9468 263.1 14.8575 263.107 14.8025C263.107 14.7475 263.107 14.7062 263.107 14.6856L263.107 14.3968C263.107 14.0874 263.1 13.9018 263.086 13.8331C263.066 13.7299 262.962 13.6818 262.776 13.6818L262.438 13.6818L262.397 13.6405L262.397 13.4274L262.438 13.3862C263.004 13.3518 263.507 13.2487 263.942 13.0768L264.024 13.1387C263.955 14.0806 263.921 14.8368 263.921 15.4212L263.921 15.5931C263.921 16.2119 263.99 16.6588 264.135 16.9269C264.279 17.2088 264.59 17.3463 265.066 17.3463C265.348 17.3463 265.617 17.2707 265.872 17.1194C266.128 16.9682 266.272 16.7619 266.314 16.5006C266.314 16.425 266.314 16.3288 266.328 16.2119C266.328 16.095 266.335 15.9713 266.335 15.8337L266.335 14.7543C266.335 14.2387 266.321 13.9293 266.293 13.8262C266.266 13.723 266.155 13.6749 265.962 13.6749L265.624 13.6749L265.583 13.6337L265.583 13.4205L265.624 13.3793C266.197 13.3518 266.7 13.2487 267.148 13.0699L267.238 13.1318C267.19 13.448 267.169 14.0187 267.169 14.8368L267.169 16.5969C267.169 17.0919 267.197 17.3669 267.259 17.4288C267.341 17.5113 267.514 17.5526 267.783 17.5526L267.824 17.5938L267.824 17.8069L267.783 17.8482C267.5 17.8207 267.155 17.8069 266.748 17.8069C266.576 17.8069 266.431 17.8138 266.314 17.8344L266.341 17.8413Z" fill="#CFFF5E"/>
<path d="M268.92 17.8482L268.879 17.807L268.879 17.5732L268.92 17.5319C269.176 17.4907 269.334 17.4494 269.396 17.4013C269.52 17.3188 269.679 17.0919 269.872 16.7138L272.824 10.6567L272.968 10.6567L274.982 15.7031C275.044 15.8613 275.099 16.0056 275.154 16.1431C275.21 16.2807 275.251 16.3769 275.272 16.4388C275.292 16.4938 275.306 16.5282 275.306 16.535C275.52 17.0438 275.665 17.3326 275.741 17.4013C275.83 17.4907 276.023 17.5319 276.32 17.5319L276.361 17.5732L276.361 17.807L276.32 17.8482C276.044 17.8207 275.596 17.807 274.968 17.807C274.679 17.807 274.396 17.8138 274.12 17.8345C274.037 17.8345 273.948 17.8482 273.851 17.8482L273.81 17.807L273.81 17.5732L273.851 17.5319C274.141 17.5182 274.313 17.5044 274.375 17.4838C274.472 17.4494 274.52 17.3807 274.52 17.2707C274.52 17.1126 274.458 16.8719 274.327 16.5419L273.665 14.8437L271.286 14.8437L270.596 16.3632C270.375 16.8788 270.265 17.1744 270.265 17.2569C270.265 17.3532 270.313 17.4219 270.417 17.4632C270.507 17.5113 270.672 17.5319 270.92 17.5319L270.962 17.5732L270.962 17.807L270.92 17.8482C270.582 17.8207 270.224 17.807 269.838 17.807C269.451 17.807 269.141 17.8207 268.92 17.8482ZM273.52 14.4656L272.568 11.9768L271.424 14.4656L273.52 14.4656Z" fill="#CFFF5E"/>
<path d="M277.375 13.7231L277.375 15.8338C277.375 16.5763 277.396 17.0644 277.437 17.3051C277.465 17.4151 277.52 17.4838 277.61 17.5113C277.727 17.5388 277.872 17.5526 278.051 17.5526L278.092 17.5938L278.092 17.807L278.065 17.8482C277.727 17.8207 277.361 17.807 276.962 17.807C276.562 17.807 276.189 17.8207 275.865 17.8482L275.817 17.807L275.817 17.5938L275.865 17.5526C276.051 17.5526 276.196 17.5388 276.299 17.5113C276.41 17.4769 276.465 17.4082 276.472 17.3051C276.513 16.9063 276.534 16.4182 276.534 15.8475L276.534 13.7299C276.534 12.183 276.52 11.3649 276.493 11.2755C276.486 11.1655 276.375 11.1105 276.162 11.1105L275.831 11.1105L275.789 11.0692L275.789 10.8561L275.831 10.8148C276.32 10.7873 276.817 10.6773 277.327 10.478L277.417 10.5398C277.382 10.8286 277.368 11.8943 277.368 13.7368L277.375 13.7231Z" fill="#CFFF5E"/>
<path d="M279.472 14.6306C279.41 14.7543 279.382 14.995 279.382 15.3525L279.382 15.8338C279.382 16.5763 279.403 17.0644 279.444 17.3051C279.472 17.4151 279.527 17.4838 279.617 17.5113L279.658 17.5251C279.658 17.5251 279.713 17.5251 279.761 17.5251C279.81 17.5251 279.858 17.5251 279.913 17.5251C279.961 17.5251 280.01 17.5251 280.065 17.5251C280.12 17.5251 280.161 17.5319 280.196 17.5319C280.223 17.5319 280.251 17.5319 280.265 17.5319L280.306 17.5732L280.306 17.807L280.279 17.8482C279.941 17.8207 279.506 17.807 278.968 17.807C278.561 17.807 278.196 17.8207 277.879 17.8482L277.83 17.807L277.83 17.5938L277.879 17.5526C278.065 17.5526 278.21 17.5388 278.313 17.5113C278.423 17.4769 278.479 17.4082 278.486 17.3051C278.527 16.9063 278.548 16.4182 278.548 15.8475L278.548 15.0431C278.548 14.3762 278.534 13.9706 278.506 13.8331C278.492 13.7299 278.382 13.6818 278.175 13.6818L277.844 13.6818L277.803 13.6406L277.803 13.4274L277.844 13.3862C278.41 13.3587 278.906 13.2555 279.341 13.0768L279.43 13.1387C279.403 13.3105 279.389 13.6749 279.389 14.2318C279.389 14.2318 279.417 14.1906 279.479 14.1218C279.534 14.0531 279.589 13.9912 279.637 13.9362C279.727 13.8193 279.789 13.7437 279.823 13.7093C280.154 13.283 280.527 13.0699 280.947 13.0699C281.065 13.0699 281.168 13.0905 281.265 13.1318L281.292 13.2005C281.237 13.5168 281.21 13.8606 281.21 14.2387L281.182 14.2662L281.016 14.2662L280.989 14.2456C280.913 13.9568 280.727 13.8124 280.43 13.8124C280.237 13.8124 280.051 13.9018 279.872 14.0737C279.692 14.2456 279.554 14.4381 279.472 14.6306Z" fill="#CFFF5E"/>
<path d="M284.947 16.9957L285.03 17.0782L284.864 17.4288C284.375 17.7932 283.823 17.972 283.216 17.972C282.492 17.972 281.927 17.7588 281.506 17.3394C281.085 16.92 280.878 16.3494 280.878 15.6275C280.878 15.16 280.94 14.7612 281.065 14.4312C281.189 14.1012 281.416 13.8262 281.754 13.6131C282.258 13.2418 282.775 13.0562 283.299 13.0562C283.906 13.0562 284.368 13.2143 284.692 13.5374C285.016 13.8606 285.175 14.3281 285.175 14.9331C285.175 15.0019 285.168 15.1187 285.154 15.2837L285.106 15.3319C284.857 15.4212 284.299 15.4625 283.423 15.4625L281.837 15.4625C281.837 16.0538 281.989 16.5282 282.285 16.8857C282.582 17.2432 283.023 17.4288 283.602 17.4288C284.085 17.4288 284.533 17.2844 284.954 16.9888L284.947 16.9957ZM281.83 15.0706C282.209 15.105 282.733 15.1187 283.395 15.1187C283.864 15.1187 284.147 15.105 284.251 15.0912L284.251 14.9056C284.251 13.8949 283.864 13.393 283.085 13.393C282.63 13.393 282.306 13.5512 282.113 13.8743C281.92 14.1906 281.823 14.5893 281.823 15.0706L281.83 15.0706Z" fill="#CFFF5E"/>
<path d="M289.74 12.788L289.74 16.92C289.74 17.195 289.768 17.36 289.83 17.4219C289.899 17.5044 290.071 17.5457 290.354 17.5457L290.395 17.5869L290.395 17.8069L290.368 17.8482C290.119 17.8207 289.844 17.8069 289.54 17.8069C289.354 17.8069 289.154 17.8207 288.933 17.8482L288.885 17.8001C288.899 17.305 288.906 17.0163 288.906 16.9269C288.547 17.3394 288.23 17.6488 287.947 17.8551C287.775 17.9376 287.561 17.9788 287.299 17.9788C286.671 17.9788 286.175 17.7588 285.796 17.3188C285.423 16.8788 285.237 16.3356 285.237 15.6962C285.237 15.3112 285.299 14.94 285.43 14.5893C285.561 14.2318 285.761 13.9706 286.037 13.8056C286.83 13.3105 287.43 13.063 287.851 13.063C288.271 13.063 288.602 13.1387 288.906 13.2968L288.906 13.0837C288.906 11.963 288.892 11.358 288.864 11.2755C288.857 11.1655 288.747 11.1105 288.533 11.1105L288.133 11.1105L288.092 11.0692L288.092 10.8561L288.133 10.8148C288.713 10.7529 289.23 10.6292 289.699 10.4436L289.788 10.5054C289.754 10.973 289.74 11.7361 289.74 12.7949L289.74 12.788ZM288.906 15.9369L288.906 14.2937C288.809 14.0256 288.644 13.8262 288.402 13.6887C288.161 13.5512 287.892 13.4824 287.589 13.4824C287.078 13.4824 286.706 13.668 286.478 14.0393C286.244 14.4106 286.127 14.8712 286.127 15.4144C286.127 15.9575 286.258 16.3975 286.527 16.7688C286.795 17.1469 287.182 17.3325 287.678 17.3325C288.051 17.3325 288.347 17.195 288.568 16.9132C288.788 16.6381 288.906 16.3081 288.906 15.93L288.906 15.9369Z" fill="#CFFF5E"/>
<path d="M294.422 16.9957L294.505 17.0782L294.34 17.4288C293.85 17.7932 293.298 17.972 292.691 17.972C291.967 17.972 291.402 17.7588 290.981 17.3394C290.561 16.92 290.354 16.3494 290.354 15.6275C290.354 15.16 290.416 14.7612 290.54 14.4312C290.664 14.1012 290.892 13.8262 291.229 13.6131C291.733 13.2418 292.25 13.0562 292.774 13.0562C293.381 13.0562 293.843 13.2143 294.167 13.5374C294.491 13.8606 294.65 14.3281 294.65 14.9331C294.65 15.0019 294.643 15.1187 294.629 15.2837L294.581 15.3319C294.333 15.4212 293.774 15.4625 292.898 15.4625L291.312 15.4625C291.312 16.0538 291.464 16.5282 291.76 16.8857C292.057 17.2432 292.498 17.4288 293.078 17.4288C293.56 17.4288 294.009 17.2844 294.429 16.9888L294.422 16.9957ZM291.305 15.0706C291.685 15.105 292.209 15.1187 292.871 15.1187C293.34 15.1187 293.622 15.105 293.726 15.0912L293.726 14.9056C293.726 13.8949 293.34 13.393 292.56 13.393C292.105 13.393 291.781 13.5512 291.588 13.8743C291.395 14.1906 291.298 14.5893 291.298 15.0706L291.305 15.0706Z" fill="#CFFF5E"/>
<path d="M299.215 12.788L299.215 16.92C299.215 17.195 299.243 17.36 299.305 17.4219C299.374 17.5044 299.546 17.5457 299.829 17.5457L299.87 17.5869L299.87 17.8069L299.843 17.8482C299.594 17.8207 299.319 17.8069 299.015 17.8069C298.829 17.8069 298.629 17.8207 298.408 17.8482L298.36 17.8001C298.374 17.305 298.381 17.0163 298.381 16.9269C298.022 17.3394 297.705 17.6488 297.422 17.8551C297.25 17.9376 297.036 17.9788 296.774 17.9788C296.146 17.9788 295.65 17.7588 295.271 17.3188C294.898 16.8788 294.712 16.3356 294.712 15.6962C294.712 15.3112 294.774 14.94 294.905 14.5893C295.036 14.2318 295.236 13.9706 295.512 13.8056C296.305 13.3105 296.905 13.063 297.326 13.063C297.746 13.063 298.077 13.1387 298.381 13.2968L298.381 13.0837C298.381 11.963 298.367 11.358 298.339 11.2755C298.332 11.1655 298.222 11.1105 298.008 11.1105L297.608 11.1105L297.567 11.0692L297.567 10.8561L297.608 10.8148C298.188 10.7529 298.705 10.6292 299.174 10.4436L299.263 10.5054C299.229 10.973 299.215 11.7361 299.215 12.7949L299.215 12.788ZM298.381 15.9369L298.381 14.2937C298.284 14.0256 298.119 13.8262 297.877 13.6887C297.636 13.5512 297.367 13.4824 297.063 13.4824C296.553 13.4824 296.181 13.668 295.953 14.0393C295.719 14.4106 295.602 14.8712 295.602 15.4144C295.602 15.9575 295.733 16.3975 296.002 16.7688C296.27 17.1469 296.657 17.3325 297.153 17.3325C297.526 17.3325 297.822 17.195 298.043 16.9132C298.263 16.6381 298.381 16.3081 298.381 15.93L298.381 15.9369Z" fill="#CFFF5E"/>
<path d="M299.822 15.435C299.822 14.6925 300.057 14.1149 300.532 13.6956C301.008 13.2762 301.615 13.063 302.346 13.063C303.091 13.063 303.663 13.283 304.07 13.7231C304.477 14.1631 304.677 14.7612 304.677 15.5037C304.677 16.2463 304.449 16.8032 303.987 17.2707C303.532 17.7382 302.946 17.972 302.229 17.972C301.436 17.972 300.843 17.7451 300.436 17.2982C300.029 16.8513 299.829 16.2256 299.829 15.435L299.822 15.435ZM300.753 15.4212C300.753 16.0056 300.877 16.5213 301.126 16.9613C301.374 17.4082 301.767 17.6282 302.298 17.6282C302.65 17.6282 302.932 17.5251 303.16 17.3119C303.381 17.1057 303.532 16.8582 303.608 16.5832C303.684 16.3081 303.718 15.9988 303.718 15.655C303.718 14.1424 303.208 13.3862 302.181 13.3862C301.684 13.3862 301.325 13.5924 301.091 13.9981C300.863 14.4037 300.746 14.8781 300.746 15.4212L300.753 15.4212Z" fill="#CFFF5E"/>
<path d="M306.284 14.6306C306.222 14.7543 306.194 14.995 306.194 15.3525L306.194 15.8338C306.194 16.5763 306.215 17.0644 306.256 17.3051C306.284 17.4151 306.339 17.4838 306.428 17.5113L306.47 17.5251C306.47 17.5251 306.525 17.5251 306.573 17.5251C306.622 17.5251 306.67 17.5251 306.725 17.5251C306.773 17.5251 306.822 17.5251 306.877 17.5251C306.932 17.5251 306.973 17.5319 307.008 17.5319C307.035 17.5319 307.063 17.5319 307.077 17.5319L307.118 17.5732L307.118 17.807L307.091 17.8482C306.753 17.8207 306.318 17.807 305.78 17.807C305.373 17.807 305.008 17.8207 304.684 17.8482L304.636 17.807L304.636 17.5938L304.684 17.5526C304.87 17.5526 305.015 17.5388 305.118 17.5113C305.229 17.4769 305.284 17.4082 305.291 17.3051C305.332 16.9063 305.353 16.4182 305.353 15.8475L305.353 15.0431C305.353 14.3762 305.339 13.9706 305.311 13.8331C305.298 13.7299 305.187 13.6818 304.98 13.6818L304.649 13.6818L304.608 13.6406L304.608 13.4274L304.649 13.3862C305.215 13.3587 305.711 13.2555 306.146 13.0768L306.235 13.1387C306.208 13.3105 306.194 13.6749 306.194 14.2318C306.194 14.2318 306.222 14.1906 306.284 14.1218C306.339 14.0531 306.394 13.9912 306.442 13.9362C306.532 13.8193 306.594 13.7437 306.628 13.7093C306.959 13.283 307.332 13.0699 307.753 13.0699C307.87 13.0699 307.973 13.0905 308.07 13.1318L308.097 13.2005C308.042 13.5168 308.015 13.8606 308.015 14.2387L307.987 14.2662L307.821 14.2662L307.794 14.2456C307.718 13.9568 307.532 13.8124 307.235 13.8124C307.042 13.8124 306.856 13.9018 306.677 14.0737C306.497 14.2456 306.36 14.4381 306.277 14.6306L306.284 14.6306Z" fill="#CFFF5E"/>
<path d="M48.5832 0.502207L13.0682 15.9577C9.24088 17.6215 3.24127 19.5466 0.696606 15.4902C-0.717096 13.242 0.144917 9.71502 2.18616 6.49054C3.48953 4.42797 5.16528 2.53728 6.84793 0.646587C5.90317 2.18664 3.31713 7.35682 6.79276 9.8869C8.1513 10.8701 10.5167 10.9594 13.4544 10.1482L48.5832 0.502207Z" fill="#CFFF5E"/>
<path d="M52.6379 17.7863L52.6379 0.000114441L60.1478 0.000114113L60.1478 17.7863L52.6379 17.7863Z" fill="#CFFF5E"/>
<path d="M74.7812 17.7863L68.4575 5.12216L68.4575 17.7863L62.1062 17.7863L62.1062 0.000114441L73.0296 0.000113963L79.3534 12.6368L79.3534 0.000113687L85.7047 0.000113409L85.7047 17.7863L74.7812 17.7863Z" fill="#CFFF5E"/>
<path d="M95.1731 3.69211L95.1731 7.43912L103.821 7.43912L103.821 11.083L95.1731 11.083L95.1731 17.7863L87.6632 17.7863L87.6632 0.000114441L104.441 0.000113708L104.441 3.69899L95.1731 3.69899L95.1731 3.69211Z" fill="#CFFF5E"/>
<path d="M105.752 17.7863L105.752 0.000114441L113.261 0.000114113L113.261 17.7863L105.752 17.7863Z" fill="#CFFF5E"/>
<path d="M127.888 17.7863L121.565 5.12216L121.565 17.7863L115.213 17.7863L115.213 0.000114441L126.137 0.000113963L132.46 12.6368L132.46 0.000113687L138.812 0.000113409L138.812 17.7863L127.888 17.7863Z" fill="#CFFF5E"/>
<path d="M140.763 17.7863L140.763 0.000114441L148.273 0.000114113L148.273 17.7863L140.763 17.7863Z" fill="#CFFF5E"/>
<path d="M163.203 4.09088L163.203 17.7863L155.693 17.7863L155.693 4.09088L149.763 4.09088L149.763 0.000114441L169.141 0.000113594L169.141 4.09088L163.21 4.09088L163.203 4.09088Z" fill="#CFFF5E"/>
<path d="M185.347 12.4649L185.347 17.7863L177.837 17.7863L177.837 12.4649L169.134 0.000114441L177.981 0.000114054L182.057 7.68663L186.181 0.000113696L194.043 0.000113352L185.347 12.4649Z" fill="#CFFF5E"/>
<path d="M204.014 17.7794L203.539 14.7268C203.476 14.3075 203.394 13.9706 203.29 13.7162C203.187 13.4549 203.049 13.2624 202.863 13.1318C202.677 13.0012 202.442 12.9118 202.152 12.8637C201.863 12.8224 201.49 12.7949 201.049 12.7949L199.228 12.7949L199.228 17.7794L193.512 17.7794L193.512 4.10461L203.256 4.10461C204.194 4.10461 205.035 4.18024 205.78 4.33837C206.525 4.4965 207.166 4.73713 207.69 5.06027C208.214 5.3834 208.621 5.79592 208.897 6.31156C209.173 6.82033 209.317 7.42535 209.317 8.11974C209.317 8.61476 209.235 9.0479 209.069 9.41916C208.904 9.79043 208.683 10.1067 208.393 10.3542C208.111 10.6086 207.773 10.808 207.393 10.9592C207.014 11.1105 206.614 11.2136 206.194 11.2617C206.662 11.303 207.062 11.3855 207.4 11.5161C207.738 11.6467 208.014 11.8117 208.228 12.0111C208.442 12.2036 208.614 12.4305 208.731 12.6849C208.849 12.9393 208.938 13.2005 208.986 13.4824L209.8 17.7794L204.007 17.7794L204.014 17.7794ZM203.656 8.46351C203.656 7.85849 203.456 7.42535 203.049 7.17784C202.642 6.92345 202.083 6.7997 201.38 6.7997L199.235 6.7997L199.235 10.1892L201.38 10.1892C202.077 10.1892 202.628 10.0654 203.042 9.81105C203.456 9.55667 203.663 9.10978 203.663 8.46351L203.656 8.46351Z" fill="#CFFF5E"/>
<path d="M221.027 17.7794L216.165 8.04412L216.165 17.7794L211.283 17.7794L211.283 4.10461L219.682 4.10461L224.544 13.8193L224.544 4.10461L229.427 4.10461L229.427 17.7794L221.027 17.7794Z" fill="#CFFF5E"/>
<path d="M245.646 12.5543L247.888 12.5543L247.888 15.2081L245.646 15.2081L245.646 17.7794L240.405 17.7794L240.405 15.2012L232.751 15.2012L232.751 12.1693L239.302 4.09773L245.646 4.09773M240.481 7.10908L236.15 12.5474L240.481 12.5474L240.481 7.10908Z" fill="#CFFF5E"/>
</svg>


