<svg width="23" height="23" viewBox="0 0 23 23" fill="none" xmlns="http://www.w3.org/2000/svg">
<g id="logotipo-de-spotify 1" clip-path="url(#clip0_59_3418)">
<g id="Group">
<path id="Vector" d="M15.8641 14.89C12.0365 13.1211 6.6791 13.9035 6.45297 13.9376C5.94877 14.0138 5.60176 14.4842 5.67796 14.9884C5.75415 15.4926 6.22488 15.8392 6.72871 15.7634C6.77869 15.7558 11.7593 15.027 15.0894 16.5661C15.2147 16.6241 15.3466 16.6515 15.4762 16.6515C15.8251 16.6514 16.1589 16.4529 16.3149 16.1154C16.5287 15.6526 16.3269 15.104 15.8641 14.89Z" fill="white" fill-opacity="0.5"/>
<path id="Vector_2" d="M16.9398 11.5653C12.5929 9.55649 6.49717 10.4467 6.23977 10.4855C5.73581 10.5617 5.38905 11.0318 5.465 11.5358C5.54083 12.0398 6.0113 12.3871 6.51514 12.3114C6.57275 12.3027 12.326 11.4673 16.1652 13.2415C16.2907 13.2995 16.4223 13.3269 16.5519 13.3269C16.9008 13.3268 17.2346 13.1283 17.3907 12.7907C17.6045 12.3279 17.4027 11.7792 16.9398 11.5653Z" fill="white" fill-opacity="0.5"/>
<path id="Vector_3" d="M17.6631 8.09188C12.8616 5.87282 6.11791 6.85747 5.83318 6.90043C5.32922 6.97663 4.98246 7.44673 5.05841 7.95069C5.13436 8.45465 5.60496 8.8024 6.10855 8.7262C6.17293 8.71648 12.5946 7.78365 16.8885 9.76797C17.0138 9.82595 17.1456 9.8534 17.2753 9.8534C17.6241 9.8534 17.958 9.65472 18.1139 9.31731C18.3279 8.85435 18.126 8.30583 17.6631 8.09188Z" fill="white" fill-opacity="0.5"/>
<path id="Vector_4" d="M11.5001 0.000187397C5.15886 0.000187397 0 5.15892 0 11.4998C0 17.841 5.15886 22.9999 11.5001 22.9999C17.8411 22.9999 23 17.841 23 11.4998C23 5.15892 17.8411 0.000187397 11.5001 0.000187397ZM11.5001 21.1535C6.17699 21.1535 1.84645 16.8229 1.84645 11.4998C1.84645 6.17693 6.17699 1.84651 11.5001 1.84651C16.823 1.84651 21.1535 6.17693 21.1535 11.4998C21.1535 16.8229 16.823 21.1535 11.5001 21.1535Z" fill="white" fill-opacity="0.5"/>
</g>
</g>
<defs>
<clipPath id="clip0_59_3418">
<rect width="23" height="23" fill="white"/>
</clipPath>
</defs>
</svg>
