<svg width="20" height="23" viewBox="0 0 20 23" fill="none" xmlns="http://www.w3.org/2000/svg">
<path id="Vector" opacity="0.5" d="M15.8673 3.60333C14.9954 2.60618 14.5149 1.32561 14.5153 0H10.574V15.8444C10.5436 16.7019 10.1822 17.514 9.56603 18.1099C8.94982 18.7057 8.12685 19.0388 7.27041 19.0389C5.45918 19.0389 3.95408 17.5567 3.95408 15.7167C3.95408 13.5189 6.07143 11.8706 8.25255 12.5478V8.51C3.85204 7.92222 0 11.3467 0 15.7167C0 19.9717 3.52041 23 7.25765 23C11.2628 23 14.5153 19.7417 14.5153 15.7167V7.67944C16.1135 8.82925 18.0324 9.44616 20 9.44278V5.49444C20 5.49444 17.602 5.60944 15.8673 3.60333Z" fill="white"/>
</svg>
