<svg width="20" height="20" viewBox="0 0 220 220" fill="none" xmlns="http://www.w3.org/2000/svg">
<path d="M187.513 32.0106C177.428 21.8238 165.416 13.747 152.177 8.25119C138.938 2.75542 124.738 -0.0492811 110.403 0.000655264C50.3435 0.000655264 1.39367 48.9505 1.39367 109.01C1.39367 128.26 6.45366 146.96 15.9136 163.46L0.513672 220L58.2635 204.82C74.2135 213.51 92.1434 218.13 110.403 218.13C170.463 218.13 219.413 169.18 219.413 109.12C219.413 79.9704 208.083 52.5805 187.513 32.0106ZM110.403 199.65C94.1234 199.65 78.1734 195.25 64.2035 187L60.9035 185.02L26.5836 194.04L35.7136 160.6L33.5136 157.19C24.4688 142.747 19.6662 126.052 19.6536 109.01C19.6536 59.0705 60.3535 18.3706 110.293 18.3706C134.493 18.3706 157.263 27.8306 174.313 44.9905C182.755 53.3941 189.446 63.3898 193.996 74.3981C198.547 85.4065 200.867 97.2086 200.823 109.12C201.043 159.06 160.343 199.65 110.403 199.65ZM160.123 131.89C157.373 130.57 143.953 123.97 141.533 122.98C139.003 122.1 137.243 121.66 135.373 124.3C133.503 127.05 128.333 133.21 126.793 134.97C125.253 136.84 123.603 137.06 120.853 135.63C118.103 134.31 109.303 131.34 98.9634 122.1C90.8234 114.84 85.4334 105.93 83.7834 103.18C82.2434 100.43 83.5634 99.0004 84.9934 97.5704C86.2034 96.3604 87.7434 94.3804 89.0634 92.8404C90.3834 91.3004 90.9334 90.0904 91.8134 88.3304C92.6934 86.4604 92.2534 84.9204 91.5934 83.6004C90.9334 82.2804 85.4334 68.8605 83.2334 63.3605C81.0334 58.0805 78.7234 58.7405 77.0734 58.6305H71.7935C69.9235 58.6305 67.0635 59.2905 64.5335 62.0405C62.1135 64.7905 55.0735 71.3904 55.0735 84.8104C55.0735 98.2304 64.8635 111.21 66.1835 112.97C67.5035 114.84 85.4334 142.34 112.713 154.11C119.203 156.97 124.263 158.62 128.223 159.83C134.713 161.92 140.653 161.59 145.383 160.93C150.663 160.16 161.553 154.33 163.753 147.95C166.063 141.57 166.063 136.18 165.293 134.97C164.523 133.76 162.873 133.21 160.123 131.89Z" fill="black"/>
</svg>
