<svg width="35" height="35" viewBox="0 0 35 35" fill="currentColor" xmlns="http://www.w3.org/2000/svg">
<g id="Group 3">
<path id="Vector" d="M29.1598 5.60016C27.5967 4.02134 25.735 2.76953 23.6831 1.91775C21.6313 1.06597 19.4303 0.631278 17.2087 0.639018C7.90014 0.639018 0.313513 8.22565 0.313513 17.5342C0.313513 20.5177 1.09775 23.416 2.56393 25.9733L0.177124 34.7362L9.12765 32.3835C11.5997 33.7304 14.3786 34.4464 17.2087 34.4464C26.5172 34.4464 34.1039 26.8598 34.1039 17.5512C34.1039 13.0334 32.3479 8.78825 29.1598 5.60016ZM17.2087 31.5822C14.6855 31.5822 12.2134 30.9003 10.0483 29.6217L9.53681 29.3148L4.21765 30.7128L5.63268 25.53L5.29171 25.0015C3.88988 22.7629 3.14553 20.1754 3.14358 17.5342C3.14358 9.79412 9.45157 3.48614 17.1916 3.48614C20.9423 3.48614 24.4714 4.95232 27.1139 7.6119C28.4224 8.91435 29.4593 10.4636 30.1646 12.1697C30.8699 13.8759 31.2295 15.7051 31.2226 17.5512C31.2567 25.2913 24.9488 31.5822 17.2087 31.5822ZM24.9147 21.0803C24.4884 20.8757 22.4085 19.8528 22.0334 19.6994C21.6413 19.563 21.3685 19.4948 21.0787 19.9039C20.7889 20.3302 19.9876 21.2849 19.7489 21.5577C19.5102 21.8475 19.2545 21.8816 18.8283 21.66C18.4021 21.4554 17.0382 20.9951 15.4356 19.563C14.174 18.4378 13.3387 17.0568 13.0829 16.6306C12.8442 16.2044 13.0488 15.9828 13.2705 15.7611C13.458 15.5736 13.6967 15.2667 13.9013 15.028C14.1058 14.7894 14.1911 14.6018 14.3275 14.3291C14.4639 14.0392 14.3957 13.8005 14.2934 13.596C14.1911 13.3914 13.3387 11.3114 12.9977 10.459C12.6567 9.64069 12.2987 9.74298 12.043 9.72593H11.2246C10.9348 9.72593 10.4915 9.82822 10.0994 10.2544C9.72435 10.6806 8.63324 11.7036 8.63324 13.7835C8.63324 15.8634 10.1506 17.8752 10.3551 18.1479C10.5597 18.4378 13.3387 22.6999 17.5667 24.5241C18.5726 24.9674 19.3568 25.2231 19.9706 25.4107C20.9764 25.7346 21.8971 25.6834 22.6301 25.5811C23.4485 25.4618 25.1363 24.5582 25.4773 23.5694C25.8353 22.5806 25.8353 21.7452 25.7159 21.5577C25.5966 21.3701 25.3409 21.2849 24.9147 21.0803Z" fill="white"/>
</g>
</svg>
