<svg width="36" height="25" viewBox="0 0 36 25" fill="none" xmlns="http://www.w3.org/2000/svg">
<path d="M22.7104 11.0171L15.8618 7.02803C15.468 6.79867 15.0026 6.80723 14.6166 7.05069C14.2304 7.2944 14 7.72493 14 8.20279V16.1124C14 16.588 14.2289 17.0178 14.6126 17.2617C14.8129 17.3891 15.035 17.4531 15.2575 17.4531C15.4614 17.4531 15.6657 17.3994 15.8538 17.2917L22.7026 13.3714C23.1092 13.1385 23.363 12.6886 23.3649 12.1969C23.3665 11.7052 23.1158 11.2532 22.7104 11.0171ZM15.8166 15.1174V9.20584L20.9352 12.1873L15.8166 15.1174Z" fill="white" fill-opacity="0.5"/>
<path d="M35.735 5.90047L35.7333 5.88536C35.7028 5.61969 35.3993 3.25658 34.1463 2.05463C32.6981 0.64089 31.0562 0.469147 30.2666 0.3868C30.2012 0.380001 30.1413 0.373706 30.0878 0.367158L30.0249 0.361114C25.2656 0.0438173 18.0781 0.000503646 18.0062 0.000251823L17.9999 0L17.9935 0.000251823C17.9216 0.000503646 10.7341 0.0438173 5.93202 0.361114L5.86858 0.367158C5.81749 0.373454 5.76119 0.379246 5.69994 0.385793C4.91937 0.468391 3.29505 0.640386 1.84267 2.10524C0.649287 3.29435 0.304319 5.60684 0.268888 5.86672L0.264768 5.90047C0.254057 6.01102 0 8.64282 0 11.285V13.7548C0 16.397 0.254057 19.0288 0.264768 19.1396L0.266691 19.1562C0.297178 19.4176 0.600398 21.7374 1.84761 22.9398C3.20936 24.3062 4.93118 24.487 5.85732 24.5842C6.00371 24.5996 6.12978 24.6127 6.21574 24.6265L6.29896 24.6371C9.0469 24.8769 17.6626 24.995 18.0279 24.9997L18.0389 25L18.0499 24.9997C18.1218 24.9995 25.309 24.9562 30.0683 24.6389L30.1311 24.6328C30.1913 24.6255 30.2589 24.619 30.333 24.6119C31.1092 24.5364 32.7247 24.3795 34.1571 22.9345C35.3504 21.7452 35.6957 19.4327 35.7308 19.1731L35.735 19.1393C35.7457 19.0285 36 16.397 36 13.7548V11.285C35.9997 8.64282 35.7457 6.01127 35.735 5.90047ZM33.8901 13.7548C33.8901 16.2003 33.6572 18.7188 33.6352 18.9499C33.5457 19.5868 33.1818 21.0499 32.6003 21.6293C31.7038 22.5336 30.7829 22.6233 30.1105 22.6885C30.0293 22.6963 29.954 22.7039 29.8859 22.7117C25.2826 23.0169 18.3665 23.0637 18.0479 23.0655C17.6906 23.0607 9.20098 22.9416 6.53682 22.7147C6.40031 22.6943 6.25282 22.6787 6.09737 22.6626C5.30883 22.5797 4.22943 22.4664 3.39942 21.6293L3.37992 21.6102C2.80863 21.0645 2.45515 19.6964 2.36534 18.9575C2.34858 18.7827 2.10963 16.2345 2.10963 13.7548V11.285C2.10963 8.84227 2.34199 6.32655 2.36451 6.0906C2.47136 5.34041 2.84214 3.96596 3.39942 3.41044C4.32336 2.4787 5.29757 2.37545 5.94191 2.3072C6.00343 2.30066 6.06084 2.29461 6.11384 2.28832C10.7841 1.9816 17.7499 1.93602 17.9999 1.93425C18.2498 1.93576 25.2132 1.9816 29.8419 2.28832C29.8988 2.29486 29.9609 2.30141 30.0276 2.30846C30.6903 2.37771 31.692 2.48247 32.6113 3.38148L32.6198 3.38979C33.1911 3.93549 33.5446 5.32757 33.6344 6.08128C33.6503 6.24622 33.8901 8.79996 33.8901 11.285V13.7548Z" fill="white" fill-opacity="0.5"/>
</svg>
